<svg xmlns="http://www.w3.org/2000/svg" xmlns:xlink="http://www.w3.org/1999/xlink" viewBox="0,0,256,256" width="48px" height="48px" fill-rule="nonzero"><g fill="#ffffff" fill-rule="nonzero" stroke="none" stroke-width="1" stroke-linecap="butt" stroke-linejoin="miter" stroke-miterlimit="10" stroke-dasharray="" stroke-dashoffset="0" font-family="none" font-weight="none" font-size="none" text-anchor="none" style="mix-blend-mode: normal"><g transform="scale(5.33333,5.33333)"><path d="M9.528,43.334c-0.157,0 -0.315,-0.037 -0.459,-0.111c-0.295,-0.152 -0.495,-0.441 -0.534,-0.771l-3.653,-30.759c-0.048,-0.406 0.156,-0.801 0.515,-0.996l8.625,-4.7c0.136,-0.074 0.288,-0.116 0.443,-0.121l24.538,-0.875c0.519,-0.052 0.962,0.359 1.028,0.873c0.118,0.929 2.89,22.866 2.699,32.348c-0.007,0.339 -0.186,0.652 -0.475,0.83c-0.289,0.18 -0.648,0.199 -0.956,0.052l-3.378,-1.608l-2.577,2.737c-0.288,0.305 -0.734,0.399 -1.122,0.233l-4.115,-1.764l-3.081,2.831c-0.308,0.283 -0.759,0.343 -1.132,0.154l-3.878,-1.981l-3.235,3.152c-0.302,0.295 -0.757,0.368 -1.137,0.183l-3.861,-1.889l-3.775,2.06c-0.151,0.081 -0.315,0.122 -0.48,0.122zM13.757,39.027c0.15,0 0.3,0.034 0.439,0.102l3.693,1.806l3.245,-3.161c0.306,-0.299 0.77,-0.369 1.153,-0.175l3.898,1.991l3.044,-2.798c0.291,-0.268 0.709,-0.34 1.071,-0.183l4.067,1.743l2.597,-2.76c0.298,-0.315 0.766,-0.405 1.158,-0.217l2.613,1.244c-0.093,-8.838 -2.079,-25.527 -2.577,-29.588l-23.387,0.835l-7.824,4.263l3.399,28.619l2.931,-1.599c0.15,-0.081 0.315,-0.122 0.48,-0.122z"></path><path d="M17.202,42.164l-3.228,-30.287l-1.838,6.056c-0.105,0.348 -0.39,0.61 -0.744,0.688c-0.355,0.072 -0.723,-0.043 -0.962,-0.315l-5.095,-5.768l1.499,-1.324l3.909,4.425l2.748,-9.051c0.138,-0.455 0.577,-0.766 1.051,-0.705c0.473,0.044 0.85,0.416 0.9,0.889l3.749,35.181z"></path><rect x="7.98419" y="18.85525" transform="rotate(-6.88)" width="2" height="22.463"></rect><circle cx="34" cy="23" r="2"></circle><circle cx="23" cy="25" r="2"></circle><path d="M24.746,30.048c-0.31,-0.52 0.183,-1.145 0.768,-0.991c0.805,0.212 2.033,0.419 3.672,0.369c1.895,-0.057 3.516,-0.87 4.514,-1.515c0.533,-0.345 1.226,0.184 1.01,0.78c-0.281,0.774 -0.989,1.753 -2.64,2.753c0,0 -2.499,1.25 -5.575,0c-0.931,-0.377 -1.455,-0.903 -1.749,-1.396z"></path></g></g></svg>